<?xml version="1.0" standalone="no"?>
<!DOCTYPE svg PUBLIC "-//W3C//DTD SVG 20010904//EN"
 "http://www.w3.org/TR/2001/REC-SVG-20010904/DTD/svg10.dtd">
<svg version="1.0" xmlns="http://www.w3.org/2000/svg"
 width="522.000000pt" height="522.000000pt" viewBox="0 0 522.000000 522.000000"
 preserveAspectRatio="xMidYMid meet">
<metadata>
Created by potrace 1.14, written by Peter Selinger 2001-2017
</metadata>
<g transform="translate(0.000000,522.000000) scale(0.100000,-0.100000)"
fill="#000000" stroke="none">
<path d="M2546 4694 c-3 -7 -2 -20 0 -31 5 -16 15 -18 112 -16 59 1 110 3 115
3 4 0 7 13 7 28 l0 28 -115 0 c-81 0 -116 -3 -119 -12z"/>
<path d="M3016 4663 c-9 -34 -1 -41 59 -48 28 -3 75 -11 107 -19 l56 -13 5 26
c7 33 1 41 -28 41 -13 0 -34 4 -47 9 -13 5 -47 11 -77 15 -29 4 -57 9 -61 11
-4 3 -11 -7 -14 -22z"/>
<path d="M2249 4676 c-2 -2 -22 -7 -44 -11 -22 -4 -47 -8 -55 -10 -8 -2 -22
-4 -30 -4 -30 -2 -43 -18 -36 -45 4 -15 10 -25 14 -22 4 2 27 7 52 11 25 4 47
8 50 10 3 1 27 6 54 9 62 9 64 10 58 41 -3 19 -10 25 -31 25 -15 0 -30 -2 -32
-4z"/>
<path d="M3471 4558 c-5 -13 -6 -26 -2 -30 14 -15 204 -79 211 -72 5 5 10 17
12 28 2 15 -13 25 -87 52 -132 50 -124 48 -134 22z"/>
<path d="M1785 4555 c-64 -20 -155 -63 -155 -73 0 -4 6 -16 13 -25 11 -16 18
-15 86 13 40 16 78 30 85 30 26 0 49 26 42 48 -8 25 -14 25 -71 7z"/>
<path d="M1313 4330 c-97 -58 -102 -63 -90 -83 7 -12 13 -23 14 -25 1 -2 46
23 101 55 99 59 99 59 88 87 l-11 27 -102 -61z"/>
<path d="M3899 4368 c-10 -18 -9 -24 2 -30 8 -5 52 -31 99 -59 l84 -51 19 23
18 23 -53 34 c-53 33 -143 82 -152 82 -3 0 -11 -10 -17 -22z"/>
<path d="M4289 4109 c-12 -23 -12 -22 71 -91 14 -11 39 -34 57 -50 31 -30 32
-30 52 -11 11 10 17 23 13 29 -13 19 -162 144 -172 144 -5 0 -14 -10 -21 -21z"/>
<path d="M928 4049 c-80 -73 -91 -92 -60 -108 14 -7 27 0 65 35 26 24 63 56
82 70 19 15 35 30 35 34 0 10 -29 40 -38 40 -4 0 -42 -32 -84 -71z"/>
<path d="M4989 3933 c-17 -37 -43 -95 -59 -128 -15 -33 -38 -84 -50 -113 -13
-29 -26 -51 -30 -50 -5 2 -34 27 -65 57 l-57 54 15 76 c15 74 15 77 -6 99 -11
12 -24 22 -28 22 -4 0 -21 -35 -39 -77 -18 -43 -37 -83 -43 -90 -7 -6 -49 -27
-94 -45 l-83 -34 28 -27 27 -26 77 15 76 14 54 -56 c29 -31 54 -59 56 -63 1
-4 -46 -29 -105 -56 -60 -26 -141 -63 -182 -82 l-74 -34 29 -31 c28 -29 31
-30 99 -24 39 3 80 8 92 10 12 3 53 8 90 11 37 4 76 9 85 10 9 2 47 7 84 10
l66 7 82 -80 c44 -44 91 -85 103 -91 31 -16 63 -14 69 4 13 33 -11 73 -93 156
l-85 87 6 76 c4 41 8 83 10 93 2 10 7 45 11 78 4 33 9 71 11 85 18 141 18 148
-15 181 l-31 31 -31 -69z"/>
<path d="M2607 3923 c-1 0 -38 -4 -82 -8 -255 -20 -516 -106 -735 -240 -133
-81 -199 -134 -325 -260 -114 -113 -142 -147 -219 -265 -141 -216 -228 -438
-262 -667 -3 -26 -9 -57 -11 -68 -2 -11 -6 -87 -8 -170 -6 -323 66 -610 223
-885 273 -476 748 -789 1300 -856 156 -19 418 -4 583 35 495 115 941 477 1158
942 70 148 127 340 146 489 3 25 7 61 10 80 6 52 6 268 0 320 -33 254 -81 414
-185 622 -168 337 -477 628 -832 785 -102 45 -299 106 -383 119 -27 4 -52 8
-55 9 -30 9 -316 25 -323 18z m221 -227 c61 -5 143 -20 232 -41 54 -13 185
-62 257 -96 159 -76 303 -179 424 -303 l28 -28 -42 -46 c-125 -136 -189 -191
-265 -228 l-77 -37 -149 -1 -150 -1 2 -65 c2 -36 -1 -70 -5 -76 -5 -6 -34 -24
-66 -40 -32 -15 -83 -50 -113 -76 -31 -27 -60 -46 -65 -42 -5 3 -41 0 -80 -6
-79 -13 -119 -40 -121 -80 -1 -48 -20 -105 -45 -139 -14 -18 -27 -47 -28 -63
l-3 -30 77 6 c42 4 85 9 96 11 11 2 28 4 37 4 13 1 17 9 16 36 -1 29 6 43 37
75 l39 40 33 -32 c35 -34 41 -52 21 -65 -7 -4 -22 -18 -32 -30 l-19 -23 34 0
c33 0 36 3 47 45 8 29 27 61 56 91 43 44 47 46 87 41 66 -9 72 -21 73 -144 1
-108 1 -108 26 -109 14 -1 48 11 75 26 28 15 86 40 130 55 44 16 93 37 108 48
16 10 29 18 31 16 18 -22 72 -140 66 -144 -11 -7 -213 -75 -215 -72 -12 26
-58 87 -65 87 -28 0 1 -80 53 -150 25 -32 53 -81 63 -109 15 -43 19 -48 30
-34 11 16 14 16 36 1 13 -9 43 -34 65 -56 l41 -39 74 74 c65 66 71 75 60 93
-16 26 -15 47 3 54 33 12 192 -2 236 -21 54 -24 77 -48 54 -57 -20 -7 -8 -32
41 -90 54 -63 56 -79 19 -188 -181 -542 -648 -930 -1220 -1013 -27 -4 -107 -8
-178 -10 -112 -2 -157 2 -267 19 -14 3 -43 7 -65 11 -60 10 -266 80 -335 115
-47 24 -60 35 -60 53 0 25 42 70 101 108 175 115 194 134 191 201 -1 47 1 53
47 101 65 70 89 121 104 222 l5 30 -115 0 c-142 -1 -144 1 -149 115 -1 45 -8
87 -14 95 -6 7 -28 16 -48 20 -59 10 -108 62 -121 127 -10 48 -32 56 -91 35
-42 -15 -86 -18 -280 -18 l-230 -1 0 -37 c0 -36 2 -38 61 -67 34 -16 73 -40
86 -54 24 -25 119 -213 178 -352 42 -99 68 -134 116 -158 37 -19 39 -23 39
-66 0 -40 -35 -202 -46 -213 -13 -13 -217 176 -295 274 -134 170 -241 390
-289 593 -12 51 -9 84 7 81 41 -7 75 5 107 36 37 36 42 55 36 153 l-2 33 72
-36 c40 -20 73 -35 74 -33 1 2 9 15 19 29 11 19 31 30 66 39 28 6 69 25 92 42
50 36 98 39 182 12 71 -22 88 -15 102 47 6 24 20 61 33 81 18 29 32 38 71 48
27 6 52 17 54 25 5 11 -16 51 -33 65 -22 17 -92 126 -119 185 -18 39 -40 76
-49 83 -23 17 -57 15 -107 -8 -55 -25 -85 -63 -81 -100 3 -26 -2 -31 -38 -45
-22 -10 -62 -17 -89 -18 -39 0 -57 6 -105 39 -31 21 -59 42 -62 46 -3 4 -5 42
-5 85 0 74 2 78 27 91 17 8 33 28 43 56 13 34 23 45 45 49 17 4 30 14 33 28 7
28 -25 104 -59 140 l-24 25 71 78 c226 244 506 395 854 460 17 4 61 9 100 12
38 3 71 7 72 8 4 4 148 -1 221 -8z"/>
<path d="M1997 3331 c-8 -20 -50 -70 -94 -112 l-79 -76 26 -15 c24 -13 51 -61
104 -180 10 -22 16 -63 16 -107 0 -64 3 -73 31 -106 17 -19 34 -35 38 -35 18
0 151 143 152 163 0 12 1 44 2 72 l2 50 53 6 c39 5 65 16 93 39 22 17 55 34
74 37 39 6 75 36 75 61 0 29 -160 172 -237 212 -33 17 -63 22 -142 24 l-100 3
-14 -36z"/>
<path d="M3000 3059 c0 -8 -7 -27 -16 -44 -9 -16 -22 -46 -29 -65 l-14 -35 -1
50 c-1 28 -1 60 0 73 3 35 -6 26 -38 -41 -37 -77 -46 -109 -37 -137 6 -19 12
-22 45 -17 47 6 50 3 40 -34 -5 -16 -6 -29 -3 -29 8 0 63 64 64 75 3 36 -1
208 -5 213 -4 3 -6 -1 -6 -9z"/>
<path d="M2714 2742 c-10 -9 -30 -22 -44 -28 -21 -10 -26 -20 -28 -53 -3 -45
1 -46 66 -8 28 17 32 24 32 63 0 24 -1 44 -3 44 -2 0 -12 -8 -23 -18z"/>
<path d="M2616 2148 c-89 -104 -124 -167 -117 -213 4 -25 34 -68 83 -118 20
-21 40 -48 44 -60 3 -12 20 -51 36 -85 40 -85 74 -101 202 -97 50 2 103 8 119
14 15 6 27 9 28 8 0 -1 3 -18 5 -37 5 -45 17 -122 20 -135 32 -134 50 -230 53
-287 1 -24 140 -158 165 -159 59 -3 118 -1 123 5 4 4 8 53 9 109 2 130 18 172
67 181 33 6 53 28 42 46 -5 9 16 29 49 45 18 9 21 19 20 65 -2 78 -11 114 -39
156 -14 20 -22 40 -20 45 3 4 30 15 60 23 29 9 68 28 85 43 l32 27 -107 37
c-64 22 -112 44 -119 55 -6 10 -26 45 -45 78 -18 33 -64 89 -102 126 -38 36
-70 73 -70 81 -1 7 -2 25 -3 39 l-1 25 -300 3 c-299 2 -300 2 -319 -20z"/>
<path d="M627 3738 c-24 -29 -56 -69 -71 -89 l-26 -36 23 -16 c23 -15 25 -14
94 72 55 68 69 91 61 104 -15 28 -34 20 -81 -35z"/>
<path d="M341 3309 c-29 -55 -51 -102 -49 -103 1 -2 13 -8 25 -15 20 -10 25
-5 76 92 31 56 52 105 49 108 -4 4 -16 10 -27 13 -18 5 -28 -8 -74 -95z"/>
<path d="M172 2926 c-12 -34 -24 -71 -26 -82 -2 -10 -9 -32 -15 -48 -13 -33
-14 -32 20 -41 26 -6 27 -5 59 97 18 57 34 106 36 110 2 3 -9 10 -24 16 -28 9
-28 9 -50 -52z"/>
<path d="M69 2523 c0 -5 -2 -17 -5 -28 -11 -56 -24 -188 -19 -193 12 -12 46
-11 50 1 5 15 13 68 21 139 3 29 7 58 9 65 2 6 -6 14 -18 17 -29 8 -37 7 -38
-1z"/>
<path d="M32 1950 c3 -61 9 -115 14 -120 5 -5 19 -7 31 -4 18 5 22 12 19 38
-2 17 -4 68 -5 114 l-1 82 -31 0 -31 0 4 -110z"/>
<path d="M92 1593 c-22 -4 -23 -11 -5 -75 2 -10 7 -30 10 -45 3 -16 6 -32 8
-38 1 -5 6 -25 10 -42 8 -36 9 -36 43 -27 20 6 22 11 17 33 -4 14 -9 34 -11
44 -2 10 -6 27 -9 37 -3 10 -8 29 -10 42 -12 59 -17 78 -23 77 -4 -1 -17 -4
-30 -6z"/>
<path d="M216 1137 c-16 -12 -16 -15 5 -62 73 -168 71 -165 102 -142 16 11 14
20 -25 114 -24 57 -48 103 -54 103 -5 0 -18 -6 -28 -13z"/>
<path d="M425 716 c-18 -13 -16 -18 44 -110 61 -92 65 -96 85 -82 12 8 20 19
18 25 -4 17 -114 181 -122 181 -3 0 -15 -6 -25 -14z"/>
</g>
</svg>
