<?xml version="1.0" standalone="no"?>
<!DOCTYPE svg PUBLIC "-//W3C//DTD SVG 20010904//EN"
 "http://www.w3.org/TR/2001/REC-SVG-20010904/DTD/svg10.dtd">
<svg version="1.0" xmlns="http://www.w3.org/2000/svg"
 width="377.000000pt" height="377.000000pt" viewBox="0 0 377.000000 377.000000"
 preserveAspectRatio="xMidYMid meet">
<metadata>
Created by potrace 1.14, written by Peter Selinger 2001-2017
</metadata>
<g transform="translate(0.000000,377.000000) scale(0.100000,-0.100000)"
fill="#000000" stroke="none">
<path d="M1834 3386 c4 -26 18 -31 88 -29 40 0 75 2 78 2 3 1 6 10 7 21 2 19
-4 20 -87 19 -59 -1 -87 -5 -86 -13z"/>
<path d="M1619 3376 c-3 -3 -27 -8 -54 -11 -28 -4 -54 -11 -59 -15 -12 -12 0
-39 16 -36 7 2 36 7 63 11 28 5 53 10 58 11 4 1 12 2 17 3 6 0 10 10 10 21 0
14 -7 20 -23 20 -13 0 -26 -2 -28 -4z"/>
<path d="M2170 3361 c0 -19 15 -23 157 -45 5 0 9 8 11 19 2 18 -6 22 -68 33
-93 16 -100 15 -100 -7z"/>
<path d="M2509 3299 c-1 -5 -2 -14 -3 -20 -1 -13 136 -70 146 -61 22 22 8 35
-64 62 -43 16 -79 24 -79 19z"/>
<path d="M1275 3286 c-16 -8 -47 -20 -68 -28 -33 -12 -36 -16 -24 -31 11 -17
15 -17 57 -2 80 28 100 40 100 57 0 22 -24 23 -65 4z"/>
<path d="M995 3156 c-123 -71 -122 -70 -106 -95 7 -11 23 -6 79 29 60 37 69
46 61 62 -5 10 -11 18 -12 17 -1 -1 -11 -6 -22 -13z"/>
<path d="M2813 3155 c-6 -17 10 -32 66 -61 20 -10 44 -24 53 -32 14 -12 18
-11 27 7 10 19 6 24 -44 52 -30 17 -58 35 -61 40 -9 14 -34 10 -41 -6z"/>
<path d="M675 2929 c-69 -60 -70 -62 -52 -77 11 -9 19 -7 38 9 13 12 41 36 61
53 33 28 36 35 25 50 -11 16 -18 12 -72 -35z"/>
<path d="M3094 2965 c-4 -9 5 -24 23 -39 15 -13 42 -36 58 -50 35 -30 39 -31
54 -13 8 11 1 22 -36 53 -26 21 -52 45 -59 52 -17 16 -33 15 -40 -3z"/>
<path d="M3594 2834 c-14 -32 -39 -87 -55 -122 -16 -35 -29 -68 -29 -73 0 -18
-16 -8 -58 34 l-43 43 12 52 c10 41 10 54 -1 67 -7 8 -16 15 -21 15 -9 0 -49
-85 -49 -104 0 -6 -26 -22 -58 -35 -74 -31 -80 -37 -60 -58 15 -15 23 -15 71
-3 l54 12 41 -43 c30 -32 38 -47 30 -56 -6 -7 -14 -13 -19 -13 -4 0 -38 -14
-76 -31 -37 -17 -87 -39 -110 -50 l-43 -19 22 -22 c22 -22 34 -23 123 -13 99
11 155 18 195 25 45 7 46 6 105 -52 58 -55 118 -87 130 -68 11 18 -24 76 -77
128 l-55 53 7 47 c4 26 11 74 14 107 4 33 9 80 12 105 3 25 7 54 9 66 3 13 -4
29 -20 44 l-25 23 -26 -59z"/>
<path d="M1899 2836 c-2 -2 -40 -6 -84 -10 -463 -35 -887 -364 -1049 -814 -75
-210 -91 -479 -40 -692 66 -278 216 -513 440 -692 84 -66 113 -84 229 -142 96
-47 222 -90 296 -101 24 -4 63 -10 86 -14 55 -11 250 -11 305 -1 24 5 59 11
78 14 108 17 220 56 338 117 318 166 543 449 631 794 40 158 48 339 22 500
-40 260 -182 525 -375 704 -21 20 -44 41 -51 48 -7 6 -50 37 -96 69 -159 109
-348 182 -521 203 -108 13 -205 21 -209 17z m181 -170 c60 -7 178 -38 238 -62
133 -53 245 -125 353 -225 l49 -45 -82 -85 c-59 -60 -101 -93 -143 -113 -55
-26 -69 -29 -162 -27 l-102 1 -3 -52 c-3 -51 -4 -52 -55 -82 -29 -17 -67 -43
-84 -58 -22 -20 -42 -28 -69 -28 -80 0 -120 -29 -120 -87 0 -16 -11 -45 -25
-65 -14 -20 -25 -47 -25 -58 0 -20 3 -21 58 -14 31 4 66 8 77 9 13 1 22 12 26
34 7 33 35 71 52 71 5 0 20 -10 33 -22 l23 -23 -25 -26 c-25 -26 -25 -26 -4
-32 17 -4 24 3 41 44 28 65 66 93 111 81 l33 -8 3 -86 c3 -82 4 -87 25 -86 12
1 33 9 47 18 14 10 50 25 80 35 30 9 70 26 88 36 l32 18 26 -50 c14 -28 23
-53 21 -55 -2 -3 -38 -15 -78 -29 -66 -21 -75 -22 -84 -8 -5 8 -18 25 -27 37
l-17 21 -1 -26 c0 -15 16 -51 36 -80 20 -30 43 -69 51 -87 7 -18 18 -30 24
-27 10 7 38 -8 78 -44 l25 -22 52 52 c46 45 51 54 41 71 -18 29 8 39 85 34 88
-7 149 -36 128 -61 -8 -10 -3 -22 18 -47 54 -61 55 -69 26 -150 -90 -251 -238
-440 -454 -576 -89 -56 -247 -122 -329 -137 -14 -3 -37 -8 -51 -11 -14 -3 -86
-8 -160 -10 -186 -5 -325 23 -488 98 l-63 29 17 27 c9 15 51 51 94 81 100 68
109 78 114 130 3 32 13 51 40 79 22 22 42 55 51 86 26 86 26 86 -62 86 -43 0
-85 4 -93 10 -9 6 -15 30 -17 71 -1 34 -5 65 -8 68 -4 3 -25 12 -47 21 -38 14
-67 49 -82 103 -6 19 -55 24 -72 7 -6 -6 -81 -10 -182 -11 l-172 0 0 -28 c0
-23 7 -31 40 -46 72 -32 73 -34 212 -333 11 -24 36 -53 54 -65 19 -12 34 -31
35 -42 1 -11 3 -27 3 -35 3 -27 -30 -125 -41 -125 -27 0 -161 133 -252 251
-21 27 -94 168 -117 225 -20 51 -54 174 -54 195 0 2 15 4 34 4 51 0 86 45 86
111 l0 49 52 -26 c34 -17 54 -22 56 -15 7 22 33 41 55 41 12 0 39 11 59 25 40
27 88 32 134 14 45 -16 71 -4 78 36 8 42 42 84 74 90 53 10 54 23 6 78 -19 23
-50 72 -67 110 -33 70 -54 85 -100 73 -39 -9 -77 -45 -77 -71 0 -54 -100 -72
-162 -30 -20 14 -41 25 -46 25 -4 0 -9 29 -9 65 -1 55 2 67 19 76 11 6 24 23
29 39 6 17 20 31 35 34 15 4 24 14 24 27 0 22 -24 75 -46 100 -12 13 -6 24 49
80 181 186 406 299 652 326 28 3 51 6 52 7 5 5 172 -2 223 -8z"/>
<path d="M1461 2428 c-12 -4 -21 -13 -21 -20 0 -8 -27 -40 -60 -73 -62 -61
-70 -75 -46 -75 8 0 30 -34 50 -75 28 -57 36 -87 36 -128 0 -44 5 -59 26 -82
l26 -28 56 56 c53 53 55 57 53 105 l-1 49 41 7 c23 4 56 17 73 29 17 12 36 22
44 23 20 3 62 33 62 45 0 12 -98 104 -146 137 -38 25 -156 44 -193 30z"/>
<path d="M2143 2160 l-18 -52 -5 49 -5 48 -21 -40 c-32 -60 -37 -92 -18 -103
9 -5 26 -7 37 -4 18 4 19 2 13 -24 l-7 -29 28 28 c26 25 27 32 25 99 -2 40 -5
74 -7 76 -2 2 -12 -19 -22 -48z"/>
<path d="M1935 1967 c-33 -24 -48 -74 -19 -63 8 3 19 6 24 6 17 0 40 32 40 56
0 29 -6 29 -45 1z"/>
<path d="M1867 1529 c-46 -53 -70 -105 -63 -133 3 -13 22 -41 42 -62 20 -21
49 -69 66 -106 26 -57 36 -69 65 -79 31 -10 145 -9 182 2 10 3 15 -6 17 -31 1
-19 12 -80 24 -135 29 -132 28 -127 29 -152 1 -12 24 -43 53 -72 49 -48 55
-51 105 -51 l53 0 1 63 c0 34 3 76 5 92 5 31 36 65 59 65 7 0 16 11 19 24 3
13 15 26 26 29 31 8 31 88 -1 150 -11 21 -17 42 -14 47 3 5 23 14 44 20 21 5
45 18 55 29 19 20 26 16 -87 56 -41 14 -52 25 -75 67 -15 28 -51 74 -81 103
-39 37 -54 60 -55 81 l-2 29 -216 3 -216 2 -35 -41z"/>
<path d="M436 2680 c-29 -36 -46 -66 -42 -75 9 -25 22 -17 74 48 37 45 47 65
40 75 -6 6 -13 12 -17 12 -3 0 -28 -27 -55 -60z"/>
<path d="M273 2438 c-58 -100 -66 -120 -52 -129 22 -14 23 -13 63 62 33 63 36
74 23 86 -12 13 -17 10 -34 -19z"/>
<path d="M121 2101 c-29 -79 -31 -106 -7 -106 14 0 24 17 42 75 13 41 24 76
24 76 0 1 -9 4 -19 7 -16 4 -23 -6 -40 -52z"/>
<path d="M49 1818 c0 -7 -2 -22 -4 -33 -2 -11 -7 -44 -11 -72 -6 -49 -5 -53
15 -53 11 0 21 3 21 8 1 4 4 25 7 47 12 78 9 109 -9 113 -10 2 -18 -2 -19 -10z"/>
<path d="M24 1413 c3 -43 5 -81 6 -85 0 -5 10 -8 21 -8 21 0 21 3 16 83 -3 45
-6 83 -6 85 -1 1 -10 2 -21 2 -19 0 -20 -5 -16 -77z"/>
<path d="M56 1152 c-2 -4 5 -44 16 -88 17 -72 21 -81 39 -77 23 6 22 0 1 92
-13 54 -22 75 -35 77 -9 1 -19 -1 -21 -4z"/>
<path d="M150 816 c0 -8 14 -44 30 -81 23 -51 34 -66 46 -61 9 3 17 6 19 6 1
0 -8 26 -22 58 -13 31 -27 65 -30 75 -6 20 -43 23 -43 3z"/>
<path d="M300 516 c0 -18 32 -76 43 -76 4 0 7 -7 7 -15 0 -8 5 -15 10 -15 6 0
10 -7 10 -15 0 -16 18 -19 38 -6 10 6 3 24 -30 74 -40 62 -78 87 -78 53z"/>
</g>
</svg>
